<svg width="116" height="30" viewBox="0 0 116 30" fill="none" xmlns="http://www.w3.org/2000/svg">
<g opacity="0.6">
<path d="M5.30273 5.72656H8.48877L9.03809 18.0557L13.8843 5.72656H17.29L9.5752 23.5H6.87744L5.30273 5.72656ZM3.21533 5.72656H6.6333L4.8877 19.5327L4.2041 23.5H0.13916L3.21533 5.72656ZM15.8252 5.72656H19.2676L16.1914 23.5H12.0898L12.8589 19.1787L15.8252 5.72656ZM29.314 20.2041L28.7402 23.5H21.1719L21.7578 20.2041H29.314ZM25.6885 5.72656L22.6001 23.5H18.5474L21.6113 5.72656H25.6885ZM29.6191 12.7822L29.0698 15.9683H22.4902L23.0518 12.7822H29.6191ZM31.8652 5.72656L31.2915 9.03467H23.6743L24.2603 5.72656H31.8652ZM44.1943 14.0029L43.0713 21.4248C42.5749 21.9782 41.9767 22.4258 41.2769 22.7676C40.577 23.1094 39.8446 23.3576 39.0796 23.5122C38.3146 23.675 37.57 23.7482 36.8457 23.7319C35.7471 23.7157 34.8234 23.5 34.0747 23.085C33.3341 22.6618 32.7563 22.0921 32.3413 21.376C31.9263 20.6517 31.6536 19.8338 31.5234 18.9224C31.4014 18.0109 31.4014 17.0669 31.5234 16.0903L31.9751 13.1606C32.1053 12.1353 32.3535 11.1587 32.7197 10.231C33.0859 9.30322 33.562 8.47721 34.1479 7.75293C34.742 7.02865 35.4663 6.46305 36.3208 6.05615C37.1753 5.64111 38.1681 5.4458 39.2993 5.47021C40.5688 5.48649 41.6024 5.75098 42.3999 6.26367C43.2056 6.76823 43.7915 7.47217 44.1577 8.37549C44.5321 9.27881 44.7111 10.3368 44.6948 11.5493L40.7886 11.5249C40.813 11.0773 40.8049 10.646 40.7642 10.231C40.7235 9.81592 40.5851 9.47412 40.3491 9.20557C40.1213 8.92887 39.7306 8.77832 39.1772 8.75391C38.5913 8.72135 38.1112 8.84342 37.7368 9.12012C37.3625 9.38867 37.0614 9.75081 36.8335 10.2065C36.6138 10.6623 36.4469 11.1506 36.333 11.6714C36.2272 12.1922 36.1458 12.6764 36.0889 13.124L35.6494 16.1025C35.6006 16.5094 35.5518 16.9611 35.5029 17.4575C35.4541 17.9458 35.4622 18.4178 35.5273 18.8735C35.5924 19.3211 35.7593 19.6914 36.0278 19.9844C36.3045 20.2773 36.7358 20.4279 37.3218 20.436C37.5741 20.4442 37.7856 20.4157 37.9565 20.3506C38.1356 20.2855 38.3105 20.2041 38.4814 20.1064C38.6523 20.0088 38.8436 19.9193 39.0552 19.8379L39.6289 16.9448H37.5659L38.0786 14.0029H44.1943ZM53.667 9.65723L48.1128 23.5H43.6206L52.019 5.72656H54.8511L53.667 9.65723ZM53.8135 23.5L53.0322 9.24219L53.1299 5.72656H55.8276L58.0737 23.5H53.8135ZM55.0708 16.8716L54.4849 20.1797H46.9897L47.5757 16.8716H55.0708Z" fill="#DC5426"/>
<path d="M68.4253 17.4941L72.3926 17.4453C72.36 18.723 72.0386 19.842 71.4282 20.8022C70.826 21.7544 70.0203 22.4909 69.0112 23.0117C68.0103 23.5244 66.875 23.7686 65.6055 23.7441C64.4987 23.7197 63.5872 23.4797 62.8711 23.0239C62.1549 22.5601 61.6016 21.9497 61.2109 21.1929C60.8203 20.4279 60.5721 19.5815 60.4663 18.6538C60.3687 17.7261 60.3768 16.7902 60.4907 15.8462L60.8813 13.3682C61.0278 12.3835 61.276 11.4191 61.626 10.4751C61.984 9.52295 62.4601 8.66439 63.0542 7.89941C63.6483 7.13444 64.3685 6.53223 65.2148 6.09277C66.0693 5.65332 67.054 5.4458 68.1689 5.47021C69.4629 5.49463 70.5127 5.79167 71.3184 6.36133C72.124 6.93099 72.714 7.69596 73.0884 8.65625C73.4627 9.61654 73.6458 10.6948 73.6377 11.8911L69.5483 11.8667C69.6216 11.3459 69.6419 10.8617 69.6094 10.4141C69.585 9.95833 69.4466 9.58398 69.1943 9.29102C68.9502 8.99805 68.5148 8.83936 67.8882 8.81494C67.2941 8.79053 66.818 8.9248 66.46 9.21777C66.1019 9.51074 65.8293 9.8973 65.6421 10.3774C65.4549 10.8494 65.3166 11.3499 65.2271 11.8789C65.1457 12.4079 65.0765 12.8962 65.0195 13.3438L64.6533 15.8584C64.6126 16.2083 64.5475 16.6356 64.458 17.1401C64.3766 17.6447 64.34 18.1411 64.3481 18.6294C64.3644 19.1177 64.4784 19.5327 64.6899 19.8745C64.9097 20.2082 65.3003 20.3913 65.8618 20.4238C66.4803 20.4401 66.9727 20.3221 67.3389 20.0698C67.7051 19.8094 67.9696 19.4554 68.1323 19.0078C68.3032 18.5521 68.4009 18.0475 68.4253 17.4941ZM82.2559 9.65723L76.7017 23.5H72.2095L80.6079 5.72656H83.4399L82.2559 9.65723ZM82.4023 23.5L81.6211 9.24219L81.7188 5.72656H84.4165L86.6626 23.5H82.4023ZM83.6597 16.8716L83.0737 20.1797H75.5786L76.1646 16.8716H83.6597ZM91.106 5.72656L96.7944 5.73877C97.8442 5.76318 98.7476 5.99105 99.5044 6.42236C100.269 6.84554 100.843 7.44775 101.226 8.229C101.608 9.00212 101.763 9.92171 101.689 10.9878C101.624 11.8911 101.453 12.6805 101.177 13.356C100.9 14.0314 100.497 14.6214 99.9683 15.126C99.4474 15.6224 98.7882 16.0618 97.9907 16.4443L96.5259 17.2256H91.6919L92.2412 13.9175L95.3174 13.9541C95.8219 13.9378 96.2288 13.8117 96.5381 13.5757C96.8473 13.3315 97.0833 13.0182 97.2461 12.6357C97.4089 12.2451 97.5146 11.826 97.5635 11.3784C97.6123 11.0773 97.6489 10.7518 97.6733 10.4019C97.6978 10.0438 97.6408 9.73861 97.5024 9.48633C97.3641 9.22591 97.0833 9.07943 96.6602 9.04688L94.6216 9.03467L92.0947 23.5H88.042L91.106 5.72656ZM95.7568 23.5L94.0723 15.6387L98.1982 15.6143L100.115 23.2925V23.5H95.7568ZM109.844 18.6782C109.901 18.3608 109.905 18.076 109.856 17.8237C109.807 17.5715 109.709 17.3517 109.563 17.1646C109.425 16.9692 109.242 16.7902 109.014 16.6274C108.794 16.4647 108.55 16.3141 108.281 16.1758C107.687 15.891 107.13 15.5736 106.609 15.2236C106.088 14.8656 105.628 14.4627 105.229 14.0151C104.839 13.5675 104.542 13.063 104.338 12.5015C104.143 11.9399 104.066 11.297 104.106 10.5728C104.155 9.75895 104.363 9.03467 104.729 8.3999C105.095 7.757 105.575 7.21989 106.169 6.78857C106.764 6.34912 107.427 6.01953 108.159 5.7998C108.892 5.57194 109.636 5.46615 110.393 5.48242C111.484 5.4987 112.399 5.75098 113.14 6.23926C113.88 6.72754 114.438 7.38672 114.812 8.2168C115.186 9.04688 115.361 9.97461 115.337 11L111.296 11.0122C111.305 10.6785 111.296 10.3368 111.272 9.98682C111.248 9.63688 111.146 9.34391 110.967 9.10791C110.796 8.86377 110.491 8.73763 110.051 8.72949C109.701 8.72135 109.392 8.8068 109.124 8.98584C108.855 9.16488 108.635 9.40088 108.464 9.69385C108.302 9.97868 108.192 10.2839 108.135 10.6094C108.086 10.8861 108.106 11.1383 108.196 11.3662C108.285 11.5941 108.42 11.8016 108.599 11.9888C108.778 12.1759 108.977 12.3428 109.197 12.4893C109.425 12.6357 109.64 12.766 109.844 12.8799C110.487 13.1729 111.064 13.5024 111.577 13.8687C112.09 14.2349 112.525 14.6499 112.883 15.1138C113.25 15.5695 113.518 16.0903 113.689 16.6763C113.868 17.2541 113.933 17.9132 113.884 18.6538C113.827 19.4839 113.632 20.2204 113.298 20.8633C112.965 21.498 112.525 22.0352 111.98 22.4746C111.435 22.9059 110.812 23.2314 110.112 23.4512C109.412 23.6628 108.66 23.7645 107.854 23.7563C106.967 23.7319 106.174 23.5732 105.474 23.2803C104.782 22.9792 104.2 22.5601 103.728 22.0229C103.256 21.4858 102.902 20.8551 102.666 20.1309C102.43 19.3984 102.32 18.5968 102.336 17.7261L106.438 17.7383C106.414 18.0964 106.405 18.4422 106.414 18.7759C106.422 19.1095 106.475 19.4066 106.572 19.667C106.67 19.9274 106.837 20.1349 107.073 20.2896C107.317 20.436 107.663 20.5093 108.11 20.5093C108.477 20.5093 108.778 20.4279 109.014 20.2651C109.25 20.0942 109.433 19.8704 109.563 19.5938C109.701 19.3089 109.795 19.0037 109.844 18.6782Z" fill="white"/>
</g>
</svg>
