<svg width="129" height="30" viewBox="0 0 129 30" fill="none" xmlns="http://www.w3.org/2000/svg">
<g opacity="0.6">
<path d="M5.30273 5.72656H8.48877L9.03809 18.0557L13.8843 5.72656H17.29L9.5752 23.5H6.87744L5.30273 5.72656ZM3.21533 5.72656H6.6333L4.8877 19.5327L4.2041 23.5H0.13916L3.21533 5.72656ZM15.8252 5.72656H19.2676L16.1914 23.5H12.0898L12.8589 19.1787L15.8252 5.72656ZM29.314 20.2041L28.7402 23.5H21.1719L21.7578 20.2041H29.314ZM25.6885 5.72656L22.6001 23.5H18.5474L21.6113 5.72656H25.6885ZM29.6191 12.7822L29.0698 15.9683H22.4902L23.0518 12.7822H29.6191ZM31.8652 5.72656L31.2915 9.03467H23.6743L24.2603 5.72656H31.8652ZM44.1943 14.0029L43.0713 21.4248C42.5749 21.9782 41.9767 22.4258 41.2769 22.7676C40.577 23.1094 39.8446 23.3576 39.0796 23.5122C38.3146 23.675 37.57 23.7482 36.8457 23.7319C35.7471 23.7157 34.8234 23.5 34.0747 23.085C33.3341 22.6618 32.7563 22.0921 32.3413 21.376C31.9263 20.6517 31.6536 19.8338 31.5234 18.9224C31.4014 18.0109 31.4014 17.0669 31.5234 16.0903L31.9751 13.1606C32.1053 12.1353 32.3535 11.1587 32.7197 10.231C33.0859 9.30322 33.562 8.47721 34.1479 7.75293C34.742 7.02865 35.4663 6.46305 36.3208 6.05615C37.1753 5.64111 38.1681 5.4458 39.2993 5.47021C40.5688 5.48649 41.6024 5.75098 42.3999 6.26367C43.2056 6.76823 43.7915 7.47217 44.1577 8.37549C44.5321 9.27881 44.7111 10.3368 44.6948 11.5493L40.7886 11.5249C40.813 11.0773 40.8049 10.646 40.7642 10.231C40.7235 9.81592 40.5851 9.47412 40.3491 9.20557C40.1213 8.92887 39.7306 8.77832 39.1772 8.75391C38.5913 8.72135 38.1112 8.84342 37.7368 9.12012C37.3625 9.38867 37.0614 9.75081 36.8335 10.2065C36.6138 10.6623 36.4469 11.1506 36.333 11.6714C36.2272 12.1922 36.1458 12.6764 36.0889 13.124L35.6494 16.1025C35.6006 16.5094 35.5518 16.9611 35.5029 17.4575C35.4541 17.9458 35.4622 18.4178 35.5273 18.8735C35.5924 19.3211 35.7593 19.6914 36.0278 19.9844C36.3045 20.2773 36.7358 20.4279 37.3218 20.436C37.5741 20.4442 37.7856 20.4157 37.9565 20.3506C38.1356 20.2855 38.3105 20.2041 38.4814 20.1064C38.6523 20.0088 38.8436 19.9193 39.0552 19.8379L39.6289 16.9448H37.5659L38.0786 14.0029H44.1943ZM53.667 9.65723L48.1128 23.5H43.6206L52.019 5.72656H54.8511L53.667 9.65723ZM53.8135 23.5L53.0322 9.24219L53.1299 5.72656H55.8276L58.0737 23.5H53.8135ZM55.0708 16.8716L54.4849 20.1797H46.9897L47.5757 16.8716H55.0708Z" fill="#E59D48"/>
<path d="M73.7231 13.2095L73.3081 15.895C73.1616 16.9285 72.9012 17.9214 72.5269 18.8735C72.1606 19.8175 71.6724 20.6598 71.062 21.4004C70.4517 22.141 69.707 22.7269 68.8281 23.1582C67.9574 23.5814 66.9523 23.7767 65.813 23.7441C64.7225 23.7197 63.811 23.4837 63.0786 23.0361C62.3462 22.5885 61.7725 21.9985 61.3574 21.2661C60.9424 20.5256 60.6698 19.6995 60.5396 18.7881C60.4093 17.8685 60.4012 16.9285 60.5151 15.9683L60.918 13.2705C61.0645 12.2614 61.3208 11.2848 61.687 10.3408C62.0614 9.39681 62.5578 8.55452 63.1763 7.81396C63.7948 7.06527 64.5394 6.4834 65.4102 6.06836C66.2891 5.64518 67.2982 5.44987 68.4375 5.48242C69.5117 5.4987 70.411 5.73063 71.1353 6.17822C71.8677 6.62581 72.4414 7.21582 72.8564 7.94824C73.2796 8.68066 73.5563 9.50667 73.6865 10.4263C73.8249 11.3377 73.8371 12.2655 73.7231 13.2095ZM69.1821 15.9683L69.5972 13.2339C69.6379 12.884 69.6826 12.4689 69.7314 11.9888C69.7803 11.5005 69.7803 11.0203 69.7314 10.5483C69.6826 10.0763 69.5402 9.67757 69.3042 9.35205C69.0682 9.02653 68.6898 8.85156 68.1689 8.82715C67.5505 8.78646 67.054 8.90853 66.6797 9.19336C66.3053 9.47005 66.0083 9.84033 65.7886 10.3042C65.577 10.7599 65.4183 11.2523 65.3125 11.7812C65.2067 12.3021 65.1213 12.7944 65.0562 13.2583L64.6533 15.9805C64.6126 16.3304 64.5638 16.7495 64.5068 17.2378C64.458 17.7179 64.4539 18.1981 64.4946 18.6782C64.5353 19.1584 64.6737 19.5612 64.9097 19.8867C65.1538 20.2122 65.5404 20.3872 66.0693 20.4116C66.6634 20.4442 67.1476 20.318 67.522 20.0332C67.9045 19.7484 68.2056 19.374 68.4253 18.9102C68.6532 18.4463 68.82 17.9539 68.9258 17.4331C69.0397 16.9041 69.1252 16.4159 69.1821 15.9683ZM87.1997 5.72656L86.626 9.03467H80.6812L78.1665 23.5H74.0894L77.1777 5.72656H87.1997ZM78.7036 11.8423L81.4014 11.8667C82.4837 11.8993 83.4318 12.1515 84.2456 12.6235C85.0675 13.0955 85.6901 13.7507 86.1133 14.5889C86.5446 15.4271 86.7236 16.3996 86.6504 17.5063C86.5771 18.4097 86.3493 19.2316 85.9668 19.9722C85.5924 20.7127 85.096 21.3475 84.4775 21.8765C83.859 22.4054 83.151 22.8123 82.3535 23.0972C81.5641 23.3739 80.7218 23.5081 79.8267 23.5H74.1016L77.1899 5.72656H81.2671L78.7646 20.2041L79.9731 20.2285C80.5021 20.2204 80.9416 20.082 81.2915 19.8135C81.6496 19.5449 81.9344 19.2072 82.146 18.8003C82.3657 18.3853 82.5041 17.9417 82.561 17.4697C82.618 17.1198 82.6221 16.7739 82.5732 16.4321C82.5326 16.0822 82.4064 15.7892 82.1948 15.5532C81.9914 15.3091 81.6862 15.1748 81.2793 15.1504L78.1299 15.1382L78.7036 11.8423ZM95.9033 17.2622L92.6074 17.25L91.4966 16.7251C90.3654 16.2043 89.5597 15.4881 89.0796 14.5767C88.5994 13.6571 88.4001 12.5788 88.4814 11.3418C88.571 10.1455 88.8924 9.12826 89.4458 8.29004C90.0073 7.45182 90.7438 6.81299 91.6553 6.37354C92.5749 5.93408 93.6287 5.71436 94.8169 5.71436L100.481 5.72656L97.4048 23.5H93.3276L95.8301 9.03467L94.6582 9.01025C93.8525 9.01839 93.3073 9.30322 93.0225 9.86475C92.7458 10.4263 92.5627 11.0488 92.4731 11.7324C92.4243 12.0905 92.3836 12.4567 92.3511 12.8311C92.3267 13.2054 92.3877 13.5187 92.5342 13.771C92.6888 14.0233 92.998 14.1657 93.4619 14.1982L96.416 14.2104L95.9033 17.2622ZM94.0601 15.6631L89.7266 23.5H85.1123L89.4092 15.6631H94.0601ZM107.097 15.9438H103.325L103.813 13.1362L106.499 13.1606C106.947 13.1525 107.341 13.0671 107.683 12.9043C108.033 12.7415 108.314 12.5055 108.525 12.1963C108.745 11.887 108.892 11.5086 108.965 11.061C109.022 10.6867 109.03 10.353 108.989 10.0601C108.949 9.75895 108.826 9.51888 108.623 9.33984C108.428 9.15267 108.118 9.05501 107.695 9.04688L106.084 9.03467L103.557 23.5H99.5044L102.568 5.72656L107.83 5.73877C108.578 5.74691 109.282 5.8527 109.941 6.05615C110.601 6.25146 111.174 6.54443 111.663 6.93506C112.159 7.32568 112.537 7.8221 112.798 8.42432C113.058 9.01839 113.164 9.7264 113.115 10.5483C113.058 11.4842 112.818 12.2655 112.395 12.8921C111.972 13.5106 111.406 13.9826 110.698 14.3081C109.998 14.6336 109.201 14.8127 108.306 14.8452L107.097 15.9438ZM105.693 23.5H100.92L102.91 20.2041L105.84 20.2285C106.263 20.2122 106.621 20.1105 106.914 19.9233C107.207 19.728 107.439 19.4717 107.61 19.1543C107.789 18.8288 107.911 18.4707 107.976 18.0801C108.033 17.7952 108.066 17.4941 108.074 17.1768C108.09 16.8594 108.029 16.5868 107.891 16.3589C107.76 16.1229 107.508 15.9886 107.134 15.9561L103.862 15.9438L104.387 13.1362L107.769 13.1484L108.501 14.2593C109.282 14.2837 109.937 14.4546 110.466 14.772C111.003 15.0894 111.402 15.5369 111.663 16.1147C111.931 16.6925 112.033 17.368 111.968 18.1411C111.895 19.3537 111.577 20.3587 111.016 21.1562C110.462 21.9538 109.726 22.5479 108.806 22.9385C107.887 23.3291 106.849 23.5163 105.693 23.5ZM118.279 16.6885L124.48 5.72656H128.655L125.579 23.5H121.489L123.406 12.5503L117.192 23.5H113.018L116.106 5.72656H120.195L118.279 16.6885Z" fill="white"/>
</g>
</svg>
