<svg width="15" height="14" viewBox="0 0 15 14" fill="none" xmlns="http://www.w3.org/2000/svg">
<path d="M7.27171 1.6483C7.43643 1.27875 7.51882 1.09398 7.63352 1.03708C7.73313 0.987641 7.8501 0.987641 7.94971 1.03708C8.06441 1.09398 8.1468 1.27875 8.31152 1.6483L9.62355 4.59178C9.67229 4.70103 9.69662 4.75565 9.73433 4.79748C9.76763 4.83449 9.8084 4.8641 9.85387 4.88436C9.90531 4.90727 9.96479 4.91355 10.0838 4.9261L13.2886 5.26436C13.691 5.30682 13.8921 5.32805 13.9817 5.41955C14.0595 5.49902 14.0956 5.6103 14.0794 5.72033C14.0608 5.84698 13.9105 5.98238 13.61 6.25325L11.2159 8.4107C11.1271 8.49075 11.0827 8.53081 11.0545 8.57955C11.0296 8.62273 11.0141 8.67062 11.0089 8.72014C11.003 8.77614 11.0153 8.83462 11.0402 8.95167L11.7089 12.1042C11.7928 12.5 11.8348 12.6979 11.7755 12.8113C11.7239 12.9099 11.6292 12.9786 11.5196 12.9972C11.3934 13.0185 11.2181 12.9175 10.8676 12.7154L8.07601 11.1052C7.97241 11.0454 7.92061 11.0156 7.86554 11.0039C7.8168 10.9936 7.76643 10.9936 7.71769 11.0039C7.66262 11.0156 7.61082 11.0454 7.50722 11.1052L4.71561 12.7154C4.36513 12.9175 4.1899 13.0185 4.06367 12.9972C3.95402 12.9786 3.85936 12.9099 3.80781 12.8113C3.74848 12.6979 3.79045 12.5 3.8744 12.1042L4.54306 8.95167C4.56787 8.83462 4.58028 8.77614 4.57439 8.72014C4.56918 8.67062 4.55361 8.62273 4.52871 8.57955C4.50057 8.53081 4.45614 8.49075 4.3673 8.4107L1.97332 6.25325C1.67277 5.98238 1.52249 5.84698 1.50381 5.72033C1.48759 5.6103 1.52374 5.49902 1.60154 5.41955C1.6911 5.32805 1.89228 5.30682 2.29464 5.26436L5.49951 4.9261C5.61846 4.91355 5.67793 4.90727 5.72936 4.88436C5.77486 4.8641 5.8156 4.83449 5.84894 4.79748C5.88661 4.75565 5.91096 4.70103 5.95967 4.59178L7.27171 1.6483Z" fill="#008AEE" stroke="#008AEE" stroke-width="1.5" stroke-linecap="round" stroke-linejoin="round"/>
</svg>
